<?xml version="1.0" standalone="no"?>
<!DOCTYPE svg PUBLIC "-//W3C//DTD SVG 20010904//EN"
 "http://www.w3.org/TR/2001/REC-SVG-20010904/DTD/svg10.dtd">
<svg version="1.0" xmlns="http://www.w3.org/2000/svg"
 width="809.000000pt" height="809.000000pt" viewBox="0 0 809.000000 809.000000"
 preserveAspectRatio="xMidYMid meet">

<g transform="translate(0.000000,809.000000) scale(0.100000,-0.100000)"
fill="#FF3333" stroke="none">
<path d="M5310 7893 c-53 -4 -98 -23 -53 -23 49 0 52 -48 12 -173 -26 -82 -27
-83 -63 -49 -80 76 -198 66 -289 -24 -130 -128 -139 -315 -21 -412 55 -46 119
-50 211 -15 13 5 14 0 8 -26 -9 -42 8 -47 98 -31 40 8 63 16 52 18 -45 9 -56
43 -36 108 5 16 23 79 40 139 17 61 55 194 85 297 29 103 51 190 48 193 -3 3
-12 4 -21 3 -9 -1 -41 -3 -71 -5z m-137 -255 c54 -51 55 -87 8 -250 -22 -76
-42 -142 -45 -147 -4 -5 -22 -15 -42 -21 -99 -33 -184 47 -184 173 0 200 156
345 263 245z"/>
<path d="M3812 7833 c-37 -18 -92 -69 -92 -85 0 -5 15 0 34 11 21 13 50 21 78
21 77 0 90 -31 109 -259 l12 -154 -22 -19 c-23 -18 -23 -18 35 -17 33 0 77 3
99 7 l40 7 -32 14 c-35 14 -35 16 -53 176 -26 238 -33 259 -93 295 -39 24 -71
25 -115 3z"/>
<path d="M4228 7813 c12 -10 30 -32 38 -48 23 -43 154 -425 154 -448 0 -31
-61 -136 -92 -158 -27 -20 -31 -20 -69 -5 -74 30 -113 13 -106 -46 l2 -23
-195 -6 c-412 -14 -833 -108 -1203 -269 -342 -148 -599 -307 -883 -546 -62
-52 -115 -94 -118 -94 -3 0 -6 19 -6 43 0 39 -56 207 -147 437 -55 140 -83
226 -83 258 l0 34 -40 -32 c-44 -35 -50 -50 -21 -50 27 0 35 -14 85 -147 8
-21 26 -66 40 -101 29 -70 32 -92 14 -92 -13 0 -199 70 -264 100 -47 21 -61
36 -66 70 -3 23 -7 21 -73 -42 l-70 -67 52 -1 c29 0 67 -6 85 -14 18 -8 116
-48 217 -88 l183 -73 24 -64 c13 -35 24 -81 24 -103 0 -33 -4 -41 -32 -56 -68
-37 -85 -75 -50 -109 17 -17 15 -21 -47 -93 -36 -41 -71 -81 -78 -89 -36 -35
-175 -214 -220 -281 -318 -475 -496 -937 -580 -1505 -25 -174 -25 -709 0 -880
104 -691 352 -1249 789 -1773 289 -345 630 -615 1048 -828 65 -33 219 -104
260 -119 19 -7 73 -27 120 -45 417 -157 862 -218 1400 -191 260 13 404 30 525
61 246 64 406 115 532 171 24 11 47 19 51 19 5 0 35 13 68 29 164 79 233 114
279 140 28 16 73 41 101 57 50 29 101 66 212 154 31 25 102 79 157 120 246
183 418 374 660 730 159 236 383 723 455 992 88 331 120 560 125 903 3 255 -8
414 -46 644 -74 451 -255 903 -521 1303 -259 390 -635 746 -1058 1003 -255
156 -603 301 -904 380 -194 50 -459 95 -560 95 -87 0 -92 6 -48 54 21 22 104
164 187 316 82 151 161 287 176 302 l26 27 -49 10 c-71 16 -89 14 -60 -6 12
-8 22 -22 22 -31 0 -9 -37 -85 -82 -169 -91 -171 -91 -171 -126 -68 -12 33
-35 100 -52 149 -34 97 -33 130 2 142 22 7 22 7 3 14 -11 4 -58 11 -105 14
-83 7 -85 7 -62 -11z m157 -1039 c93 -8 190 -19 215 -24 25 -4 72 -13 105 -19
129 -25 319 -76 395 -106 19 -7 89 -35 155 -61 205 -81 430 -200 610 -322 224
-153 493 -403 661 -614 377 -473 582 -951 671 -1563 25 -169 25 -628 0 -805
-97 -696 -396 -1304 -883 -1795 -410 -413 -898 -693 -1454 -835 -440 -112
-1005 -119 -1455 -18 -303 68 -584 178 -875 345 -455 259 -887 694 -1149 1155
-203 357 -353 802 -385 1143 -3 33 -9 89 -13 125 -15 121 -9 526 10 665 21
168 40 270 67 375 12 47 26 101 30 120 10 38 67 200 101 284 182 449 441 822
789 1141 158 144 396 319 545 400 39 21 88 48 110 60 143 80 459 208 635 255
124 34 345 73 500 89 58 6 119 13 135 15 83 9 329 4 480 -10z"/>
<path d="M4894 6412 c-63 -22 -83 -35 -170 -110 -38 -32 -93 -73 -123 -90
l-54 -31 -39 34 c-56 47 -170 100 -261 120 -106 23 -328 16 -441 -14 -128 -34
-236 -92 -311 -165 -84 -82 -104 -127 -105 -231 0 -69 4 -89 31 -145 16 -35
46 -84 66 -108 36 -43 37 -44 82 -37 132 19 121 21 121 -16 0 -19 4 -51 9 -71
13 -56 3 -86 -50 -138 -27 -27 -49 -53 -49 -57 1 -4 15 -17 32 -28 25 -16 32
-28 34 -60 5 -75 12 -102 38 -151 14 -27 26 -59 26 -71 0 -40 44 -63 124 -63
58 0 93 8 186 41 172 61 160 61 160 -4 0 -41 -8 -72 -30 -119 -16 -34 -30 -71
-30 -80 0 -13 -12 -18 -47 -23 -85 -10 -164 -35 -200 -62 -18 -14 -52 -58 -75
-97 -76 -133 -77 -134 -138 -147 -73 -15 -120 -40 -158 -84 -67 -76 -76 -137
-37 -255 14 -41 25 -81 25 -90 0 -30 -52 -176 -87 -245 -35 -68 -112 -195
-118 -195 -11 0 -231 93 -285 120 -248 125 -384 296 -428 540 -22 120 -32 127
-127 85 -121 -54 -250 -66 -410 -40 -49 8 -101 15 -115 15 l-25 0 25 -21 c67
-54 185 -78 385 -79 l160 0 40 -102 c85 -220 196 -403 352 -583 133 -153 370
-344 412 -330 11 3 46 34 78 67 135 144 180 188 191 188 7 0 12 -4 12 -9 0 -6
-51 -115 -114 -243 -335 -684 -480 -1196 -541 -1913 -3 -38 -13 -124 -21 -191
-24 -186 -26 -179 81 -223 50 -20 117 -45 150 -55 33 -10 69 -22 80 -27 62
-25 217 -59 385 -84 93 -15 568 -38 595 -30 5 2 62 6 125 9 189 9 330 27 330
43 0 7 -43 59 -96 116 -149 158 -218 263 -277 422 -35 96 -49 176 -45 269 l3
79 39 -109 c70 -194 208 -445 325 -591 23 -29 46 -53 51 -53 5 0 27 31 49 69
23 38 52 78 67 88 36 26 25 61 -37 113 -42 36 -63 70 -42 70 3 0 40 -31 82
-68 151 -135 238 -192 318 -210 34 -8 47 -6 72 9 33 20 47 46 77 142 19 62 14
76 -28 77 -32 0 -172 42 -234 70 -185 84 -338 241 -452 465 -70 138 -151 374
-222 645 -23 90 -55 201 -97 345 -8 28 -19 60 -24 73 -18 44 -13 48 54 44 57
-3 66 -1 104 27 70 51 117 144 142 277 14 78 14 105 -3 184 -13 64 -49 149
-64 151 -4 0 -65 2 -137 4 -145 4 -177 -4 -232 -57 -40 -38 -41 -31 -7 27 46
79 134 153 433 364 164 116 176 122 188 105 8 -11 55 -82 105 -159 117 -179
184 -269 324 -430 187 -216 416 -440 617 -603 38 -31 102 -83 141 -114 76 -62
105 -108 106 -168 0 -19 4 -40 8 -45 18 -26 70 -48 124 -53 l60 -5 -6 -31 c-3
-17 -8 -42 -11 -56 -17 -81 68 -44 115 51 17 32 30 64 30 72 0 7 6 22 14 32
14 19 15 19 33 2 11 -9 23 -17 28 -17 4 0 37 21 72 47 61 46 63 49 58 83 -18
113 -18 117 16 185 26 53 52 84 123 149 140 126 197 186 190 197 -3 6 1 18 10
28 26 28 64 144 55 168 -18 48 -74 64 -151 43 -85 -24 -133 -100 -168 -266
-41 -191 -60 -244 -107 -292 -39 -41 -45 -44 -75 -37 -70 18 -103 11 -183 -38
-113 -70 -121 -70 -190 -2 -52 52 -147 176 -331 431 -85 117 -176 218 -258
287 -121 100 -185 208 -336 562 -192 452 -242 534 -410 675 -126 106 -170 160
-204 253 -25 67 -26 196 -1 262 20 55 100 192 175 300 81 116 129 221 140 306
13 110 -6 220 -57 319 -17 32 0 46 67 55 95 13 164 -49 194 -173 9 -37 25
-150 36 -252 10 -102 26 -206 35 -231 35 -103 128 -152 285 -152 163 1 293 53
352 142 32 48 25 58 -46 63 -49 3 -73 10 -104 31 -45 32 -82 101 -64 119 9 9
16 7 31 -6 29 -26 104 -33 136 -12 14 9 25 20 25 24 0 4 -21 19 -46 32 -25 14
-62 48 -83 75 -41 53 -100 190 -126 290 -8 33 -24 85 -36 115 -11 30 -23 64
-27 75 -18 63 -93 147 -155 175 -57 26 -210 27 -283 2z"/>
<path d="M3515 7808 c-29 -10 -109 -78 -101 -86 2 -2 18 4 35 12 46 24 103 21
130 -8 23 -25 39 -111 55 -308 6 -69 5 -79 -14 -98 l-20 -20 68 1 c68 1 151
15 105 18 -41 2 -54 40 -70 212 -13 128 -13 166 -4 182 7 10 10 22 7 25 -3 3
-6 0 -6 -6 0 -21 -15 -12 -38 23 -12 19 -38 42 -58 50 -42 17 -48 17 -89 3z"/>
<path d="M3265 7754 c-51 -29 -56 -33 -33 -34 44 0 56 -32 73 -189 19 -182 19
-225 0 -241 -9 -7 -13 -15 -10 -18 8 -9 138 -1 155 8 13 8 13 9 -1 10 -38 0
-43 21 -69 274 -9 89 -8 102 8 119 16 19 16 20 0 14 -15 -5 -19 2 -24 43 -8
60 -15 61 -99 14z"/>
<path d="M5640 7751 c0 -5 7 -11 15 -15 34 -13 23 -46 -90 -281 -37 -77 -87
-182 -111 -233 -50 -106 -81 -143 -113 -135 -45 11 -17 -8 67 -48 48 -23 91
-45 97 -48 5 -3 0 8 -13 23 -12 16 -22 36 -22 45 0 25 138 303 158 317 10 8
44 14 80 14 54 0 66 -4 87 -25 37 -36 32 -72 -31 -208 -86 -186 -92 -196 -133
-204 l-36 -6 90 -43 c94 -45 125 -55 87 -28 -33 23 -28 54 34 182 84 174 94
200 94 244 0 102 -94 154 -199 112 -72 -29 -75 -19 -28 81 24 50 60 124 79
165 20 41 33 78 29 81 -10 10 -141 19 -141 10z"/>
<path d="M2799 7647 c-36 -24 -79 -81 -79 -104 0 -9 16 -1 42 21 54 46 98 49
137 7 21 -22 105 -223 137 -330 3 -8 -3 -24 -11 -37 -21 -32 -8 -31 93 8 83
33 83 33 47 39 -20 3 -40 10 -44 15 -12 13 -81 191 -81 208 0 8 -4 17 -9 20
-5 3 -12 17 -15 31 -10 41 -58 112 -87 129 -38 23 -90 20 -130 -7z"/>
<path d="M2509 7537 c-35 -24 -79 -81 -79 -103 0 -8 11 -2 28 13 57 53 116 53
156 0 12 -18 37 -70 55 -117 18 -47 39 -100 47 -119 8 -18 17 -52 21 -76 5
-37 2 -44 -18 -59 -35 -24 -14 -20 83 16 88 33 108 48 65 48 -13 0 -31 8 -40
18 -27 30 -127 306 -120 332 4 16 3 21 -6 16 -7 -4 -26 5 -47 23 -43 39 -95
42 -145 8z"/>
<path d="M2293 7434 c-29 -25 -53 -49 -53 -53 0 -4 13 -6 29 -3 39 5 47 -9
117 -193 45 -120 55 -158 51 -192 l-4 -41 36 13 c76 27 126 54 105 54 -11 1
-29 10 -39 20 -22 25 -125 294 -125 327 0 13 -4 24 -9 24 -4 0 -16 20 -25 45
-10 25 -21 45 -24 45 -4 0 -31 -21 -59 -46z"/>
<path d="M1952 7245 c-58 -40 -64 -48 -27 -39 18 4 32 1 47 -12 33 -30 188
-272 188 -295 0 -25 -26 -77 -53 -106 -28 -31 -80 -40 -113 -18 -14 9 -72 88
-129 176 -58 87 -108 159 -112 159 -5 0 -35 -18 -68 -41 -46 -32 -54 -39 -31
-34 44 9 69 -14 161 -153 99 -150 111 -164 154 -187 74 -38 157 17 182 121 8
32 19 59 24 61 6 1 21 -13 34 -32 13 -19 27 -35 32 -35 8 0 79 99 79 111 0 3
-13 4 -29 1 -26 -4 -34 2 -73 56 -23 34 -78 115 -121 181 -43 67 -81 121 -85
121 -4 0 -31 -16 -60 -35z"/>
<path d="M6132 7143 c-50 -17 -133 -96 -162 -152 -10 -21 -24 -60 -31 -86 -32
-127 67 -264 192 -265 37 0 159 54 159 71 0 12 -1 12 -43 -6 -50 -21 -85 -19
-132 8 -88 50 -113 164 -61 272 15 30 31 55 35 55 4 0 34 -19 67 -41 145 -102
216 -149 225 -149 16 0 39 66 39 110 0 81 -56 155 -139 185 -53 18 -93 18
-149 -2z m178 -48 c33 -32 43 -70 29 -118 -17 -62 -26 -61 -129 9 -52 36 -96
71 -98 78 -3 13 35 46 68 59 34 14 101 -1 130 -28z"/>
<path d="M6591 6829 c-22 -24 -39 -44 -37 -47 2 -2 19 4 36 13 18 9 42 14 54
11 29 -7 189 -157 179 -167 -4 -4 -48 -14 -98 -23 -355 -60 -451 -78 -457 -84
-4 -4 18 -32 50 -63 31 -30 103 -99 160 -153 l103 -99 39 38 c22 21 38 40 36
42 -2 2 -16 -1 -31 -7 -47 -18 -76 -3 -174 87 -100 93 -100 95 -21 107 25 3
81 13 125 21 44 7 123 21 175 30 166 29 200 36 200 44 0 8 -166 172 -252 250
l-46 42 -41 -42z"/>
</g>
</svg>
