<?xml version="1.0" standalone="no"?>
<!DOCTYPE svg PUBLIC "-//W3C//DTD SVG 20010904//EN"
 "http://www.w3.org/TR/2001/REC-SVG-20010904/DTD/svg10.dtd">
<svg version="1.0" xmlns="http://www.w3.org/2000/svg"
 width="1262.000000pt" height="994.000000pt" viewBox="0 0 1262.000000 994.000000"
 preserveAspectRatio="xMidYMid meet">

<g transform="translate(0.000000,994.000000) scale(0.100000,-0.100000)"
fill="#ff0000" stroke="none">
<path d="M8098 9493 c-38 -4 -54 -23 -20 -23 25 0 42 -19 42 -48 0 -29 -40
-173 -52 -186 -5 -6 -19 1 -35 16 -55 53 -145 64 -220 27 -60 -29 -137 -117
-159 -181 -67 -204 77 -385 249 -313 48 20 47 20 36 -17 -5 -17 -7 -34 -4 -36
7 -8 175 9 175 18 0 4 -13 10 -30 14 -27 5 -30 10 -30 41 0 26 152 586 185
683 4 12 -48 14 -137 5z m-96 -262 c40 -45 44 -89 19 -179 -64 -223 -60 -212
-98 -228 -97 -41 -183 41 -183 172 0 152 94 282 195 270 28 -3 48 -14 67 -35z"/>
<path d="M6635 9437 c-30 -14 -105 -85 -105 -99 0 -18 -28 -6 -38 17 -15 32
-68 65 -105 65 -43 0 -92 -27 -137 -76 -23 -25 -45 -42 -50 -39 -6 4 -10 26
-10 51 0 24 -5 44 -10 44 -6 0 -46 -19 -88 -42 l-77 -43 42 -3 c26 -2 43 -9
47 -19 10 -24 36 -270 36 -335 0 -62 -16 -88 -53 -88 -12 0 -17 -4 -11 -9 10
-9 229 10 240 22 4 4 -3 7 -15 7 -33 0 -58 16 -64 42 -3 13 -13 92 -22 177
l-16 154 28 29 c57 60 120 74 166 38 31 -24 41 -70 58 -257 13 -146 11 -157
-42 -168 -16 -4 -27 -10 -25 -14 5 -7 244 14 252 22 3 3 -11 8 -30 11 -18 4
-39 13 -45 20 -6 7 -19 89 -30 182 l-18 169 38 37 c60 57 142 64 174 14 18
-27 48 -267 43 -343 -3 -43 -6 -50 -38 -66 l-35 -18 80 6 c124 9 175 17 169
26 -3 5 -16 9 -29 9 -41 0 -52 34 -69 200 -19 187 -27 218 -65 254 -35 34
-100 44 -146 23z"/>
<path d="M7030 9431 c0 -6 9 -15 20 -21 29 -15 45 -51 127 -288 l74 -213 -32
-57 c-59 -105 -80 -117 -154 -86 -60 25 -92 4 -86 -57 2 -14 -19 -17 -151 -23
-216 -10 -352 -24 -508 -52 -616 -112 -1159 -370 -1636 -779 l-99 -84 -6 52
c-4 29 -58 191 -123 364 -100 270 -115 315 -106 339 6 15 9 28 8 30 -5 5 -118
-97 -118 -107 0 -5 11 -3 25 3 21 9 29 9 41 -4 19 -18 134 -322 124 -326 -12
-4 -292 109 -312 126 -21 17 -23 53 -6 70 7 7 8 12 2 12 -5 0 -47 -35 -93 -78
l-84 -77 64 -1 c56 -1 91 -12 274 -87 l210 -85 22 -58 c37 -95 39 -119 11
-146 -13 -13 -39 -31 -56 -40 -25 -13 -32 -24 -32 -47 0 -20 7 -35 19 -43 18
-11 14 -18 -58 -98 -398 -443 -662 -943 -796 -1505 -60 -251 -82 -419 -91
-695 -26 -736 184 -1451 604 -2060 158 -230 410 -506 620 -682 511 -426 1163
-702 1827 -773 179 -20 510 -22 685 -6 1157 110 2172 791 2714 1822 205 390
332 814 377 1264 16 157 16 486 0 650 -54 560 -242 1094 -548 1560 -107 162
-152 222 -269 355 -396 450 -846 763 -1399 973 -270 102 -616 180 -896 202
l-86 7 38 37 c26 24 88 129 192 321 118 217 162 290 185 305 17 11 31 23 32
26 0 8 -150 23 -157 15 -3 -3 6 -10 21 -15 16 -7 26 -18 26 -31 0 -27 -152
-310 -165 -306 -5 1 -34 71 -64 154 -60 171 -61 196 -9 208 28 6 30 8 13 14
-11 4 -56 10 -100 14 -44 4 -88 10 -97 12 -10 3 -18 1 -18 -5z m35 -1051 c451
-26 800 -112 1190 -295 733 -343 1314 -977 1599 -1743 259 -697 257 -1500 -7
-2183 -365 -943 -1139 -1647 -2104 -1913 -496 -137 -1097 -141 -1598 -12 -894
231 -1654 861 -2046 1695 -190 404 -282 787 -296 1241 -13 406 48 787 184
1154 167 450 395 809 722 1136 338 338 678 557 1131 730 285 109 581 171 914
190 72 4 133 8 136 8 3 1 82 -3 175 -8z"/>
<path d="M7774 8031 c-74 -12 -126 -41 -232 -130 -51 -43 -110 -86 -131 -95
l-38 -18 -48 37 c-120 91 -241 127 -430 128 -71 1 -157 -5 -190 -12 -440 -92
-612 -363 -412 -646 49 -68 68 -75 155 -54 28 7 54 10 57 8 9 -9 26 -144 20
-166 -3 -12 -25 -42 -50 -68 -53 -53 -57 -78 -16 -94 25 -11 28 -18 28 -54 0
-60 17 -121 41 -152 13 -16 22 -42 22 -61 0 -53 36 -74 129 -74 77 0 133 14
264 64 l67 26 11 -27 c12 -31 0 -82 -43 -184 l-23 -57 -57 -6 c-144 -17 -204
-56 -267 -176 -54 -102 -69 -118 -115 -126 -102 -17 -156 -52 -201 -129 -39
-67 -41 -103 -9 -206 25 -82 27 -96 17 -144 -16 -75 -64 -186 -127 -290 -65
-109 -63 -109 -228 -38 -167 72 -269 136 -359 224 -96 96 -147 193 -187 357
-17 71 -33 117 -43 123 -12 6 -41 -2 -96 -26 -126 -55 -286 -63 -482 -25 -75
14 -77 13 -45 -17 67 -62 175 -86 395 -86 l157 -1 32 -85 c78 -207 213 -430
368 -607 136 -156 374 -344 410 -325 24 14 76 65 165 164 128 142 131 120 16
-110 -131 -265 -237 -518 -315 -748 -139 -417 -190 -660 -239 -1150 -14 -143
-30 -289 -35 -325 -16 -111 -18 -107 54 -140 88 -39 290 -105 416 -135 241
-57 495 -80 795 -72 208 5 492 31 507 46 4 3 -36 49 -88 101 -173 171 -274
331 -323 510 -23 81 -40 270 -25 270 5 0 24 -42 43 -93 45 -124 137 -312 206
-422 78 -123 154 -225 169 -225 7 0 30 30 51 66 21 36 49 73 62 84 37 29 29
59 -32 120 -53 52 -65 70 -47 70 5 0 42 -30 83 -68 199 -181 323 -246 397
-208 17 9 36 24 41 35 10 18 51 163 51 179 0 4 -33 14 -72 21 -173 32 -327
110 -442 226 -193 193 -292 405 -437 940 -33 121 -75 272 -94 336 -19 64 -35
120 -35 124 0 4 18 5 39 1 21 -3 53 -3 70 0 43 9 117 77 147 136 70 138 72
373 4 483 l-22 35 -128 0 c-159 0 -180 -4 -230 -47 -22 -19 -40 -31 -40 -26 0
18 93 125 152 174 113 94 457 339 476 339 6 0 36 -42 67 -92 250 -402 621
-817 1029 -1146 203 -164 198 -159 205 -233 l6 -64 54 -27 c35 -18 70 -28 98
-28 38 0 43 -2 35 -18 -15 -28 -24 -110 -13 -116 6 -4 28 2 50 14 32 16 46 33
70 82 16 35 33 75 36 91 8 32 12 33 37 10 22 -20 43 -12 104 38 23 19 49 39
58 44 15 9 15 14 0 60 -25 80 -9 151 54 233 14 18 77 76 141 129 177 146 231
214 231 290 0 37 -6 49 -40 83 -43 43 -53 46 -131 29 -97 -21 -146 -97 -189
-292 -37 -168 -60 -227 -107 -275 -34 -37 -46 -43 -65 -37 -78 25 -108 18
-213 -51 -86 -56 -91 -56 -171 28 -38 40 -103 120 -144 177 -232 320 -288 391
-363 461 -218 202 -240 235 -414 639 -195 450 -242 528 -409 667 -63 52 -128
113 -144 136 -67 93 -94 227 -66 335 21 83 47 133 151 287 47 71 101 159 119
195 77 154 80 291 12 445 -16 37 -23 63 -17 69 5 5 38 11 73 14 55 4 68 2 98
-19 72 -49 97 -131 125 -403 25 -255 49 -307 159 -356 43 -20 68 -23 161 -23
200 0 349 73 371 182 l7 33 -41 -7 c-80 -13 -173 38 -193 106 -7 22 -10 43 -7
45 3 3 22 -4 42 -16 47 -28 107 -30 135 -5 29 26 27 33 -18 56 -95 48 -151
143 -219 371 -70 232 -110 303 -202 353 -57 31 -153 41 -246 27z"/>
<path d="M4960 6745 c-26 -15 -40 -22 -126 -62 -29 -13 -70 -43 -91 -66 -22
-24 -54 -49 -72 -57 -62 -25 -77 -106 -29 -157 25 -27 74 -31 104 -8 25 19 58
19 74 0 16 -19 79 -19 104 0 16 12 21 12 40 0 26 -19 85 -19 112 -1 17 12 22
12 39 0 25 -18 95 -17 119 1 17 13 22 13 42 0 33 -21 87 -19 117 5 28 22 44
78 30 104 -4 8 -48 49 -97 91 -85 73 -150 115 -179 115 -7 0 -28 11 -47 25
-39 29 -100 33 -140 10z"/>
<path d="M4755 6293 c7 -40 49 -222 66 -285 l10 -38 189 0 c171 0 189 2 194
18 3 9 18 78 35 152 16 74 32 147 36 163 l7 27 -271 0 -272 0 6 -37z"/>
<path d="M8440 9351 c0 -6 6 -11 14 -11 27 0 45 -28 37 -58 -13 -44 -260 -555
-279 -575 -12 -14 -25 -17 -49 -14 -58 10 -36 -9 74 -61 110 -52 137 -58 90
-21 -15 11 -27 30 -27 42 0 12 32 88 72 169 66 135 75 149 106 159 45 15 118
6 143 -17 34 -31 21 -90 -55 -250 -73 -151 -92 -173 -141 -154 -14 5 -25 6
-25 1 0 -9 212 -112 219 -105 3 2 -5 11 -17 20 -13 9 -22 26 -22 41 0 14 32
93 71 176 41 85 74 169 77 194 13 114 -78 169 -213 128 -27 -8 -50 -13 -52
-11 -2 1 32 77 76 167 43 90 76 167 72 171 -12 13 -171 22 -171 9z"/>
<path d="M5657 9265 c-52 -18 -82 -48 -113 -112 l-25 -54 -35 30 c-27 24 -44
31 -78 31 -62 0 -104 -32 -145 -110 l-35 -65 -23 53 -23 53 -65 -57 c-64 -56
-82 -83 -47 -69 60 25 60 24 142 -190 66 -171 68 -195 22 -219 -51 -28 5 -17
106 21 103 39 140 60 85 50 -51 -10 -68 14 -133 182 -66 171 -66 173 -1 239
48 47 104 49 144 4 26 -29 136 -320 129 -344 -3 -11 -19 -29 -36 -39 -50 -30
-9 -22 112 22 111 42 130 56 69 51 -18 -1 -38 2 -45 6 -12 8 -132 305 -132
328 0 24 63 96 95 110 78 32 100 9 175 -186 33 -85 60 -162 60 -171 0 -10 -15
-29 -32 -43 -46 -36 -20 -32 107 19 108 43 116 49 63 45 -39 -2 -58 26 -107
157 -64 174 -87 219 -124 241 -48 29 -68 32 -110 17z"/>
<path d="M4767 8843 c-70 -48 -79 -63 -29 -45 24 8 35 7 52 -5 29 -21 190
-266 190 -290 -1 -28 -35 -96 -59 -117 -26 -24 -82 -26 -107 -5 -10 7 -65 86
-122 174 -58 88 -106 161 -107 163 -2 2 -35 -18 -74 -44 -73 -48 -85 -63 -36
-44 42 16 66 -6 153 -138 119 -183 148 -212 212 -212 73 0 127 60 145 163 4
20 11 37 15 37 4 0 19 -18 34 -40 14 -22 28 -40 31 -40 2 0 27 32 55 72 50 71
58 98 20 63 -35 -32 -60 -8 -181 179 -63 96 -116 175 -119 175 -3 0 -35 -21
-73 -46z"/>
<path d="M8959 8746 c-118 -42 -224 -211 -203 -325 20 -107 102 -181 201 -181
53 0 188 68 171 86 -4 3 -21 -2 -40 -12 -109 -57 -230 24 -232 155 -1 64 36
161 61 161 8 0 73 -41 144 -90 72 -50 136 -93 143 -96 18 -7 46 64 46 116 0
138 -153 236 -291 186z m145 -31 c60 -29 81 -96 50 -156 -19 -37 -20 -37 -135
43 -99 68 -100 75 -24 109 49 23 68 23 109 4z"/>
<path d="M9405 8420 c-55 -55 -54 -60 4 -29 25 12 48 18 61 14 34 -11 187
-163 170 -168 -8 -3 -136 -27 -285 -52 -148 -26 -272 -49 -275 -52 -5 -5 208
-212 288 -280 l43 -36 50 49 c54 53 65 77 22 46 -43 -30 -69 -35 -100 -18 -31
16 -196 166 -190 172 2 3 123 25 268 49 309 53 311 53 307 64 -4 9 -296 285
-306 289 -4 1 -30 -20 -57 -48z"/>
<path d="M2411 1473 c-49 -25 -73 -63 -79 -122 -4 -50 -5 -51 -38 -51 -43 0
-44 -18 -1 -22 l32 -3 3 -120 c3 -147 0 -162 -41 -180 -30 -13 -25 -14 73 -13
58 0 93 3 79 5 -54 8 -60 27 -57 174 l3 134 43 3 c57 4 54 22 -4 22 l-46 0 4
70 c4 73 9 83 45 95 18 5 31 -2 60 -30 39 -38 56 -40 61 -9 7 49 -79 78 -137
47z"/>
<path d="M3550 1466 c-46 -17 -51 -22 -30 -25 14 -1 28 -8 32 -15 4 -6 8 -107
8 -223 l0 -212 29 -15 c84 -44 178 -20 229 57 23 34 27 51 27 112 0 62 -3 76
-27 107 -49 64 -107 72 -166 23 -17 -14 -33 -25 -36 -25 -4 0 -6 52 -5 116 0
63 -1 117 -3 119 -1 1 -28 -7 -58 -19z m201 -234 c26 -23 33 -38 37 -80 13
-136 -53 -206 -148 -157 l-30 16 0 103 c0 86 3 105 18 118 41 36 83 36 123 0z"/>
<path d="M4705 1465 c-42 -20 -46 -23 -24 -24 24 -1 27 -5 33 -53 8 -69 8
-326 0 -367 -4 -20 -16 -37 -33 -46 -24 -13 -20 -14 59 -14 81 0 84 1 58 15
-27 14 -28 18 -28 89 0 41 4 75 8 75 5 0 35 -35 66 -77 53 -71 56 -78 40 -90
-15 -11 -5 -13 67 -13 80 1 82 1 53 14 -19 8 -62 51 -103 102 l-71 88 43 44
c23 23 64 54 92 67 l50 24 -75 0 c-69 0 -73 -1 -55 -15 19 -14 18 -17 -45 -77
l-65 -62 -3 173 c-1 94 -6 172 -10 171 -4 0 -29 -11 -57 -24z"/>
<path d="M6636 1224 c-48 -146 -85 -268 -82 -271 3 -4 8 -4 9 -2 6 7 177 518
177 528 0 42 -27 -24 -104 -255z"/>
<path d="M7005 1465 c-42 -20 -46 -24 -24 -24 33 -1 39 -16 39 -93 l0 -60 -27
8 c-45 13 -98 9 -127 -9 -70 -47 -104 -158 -72 -242 32 -83 104 -114 176 -76
50 26 50 26 50 1 0 -25 3 -24 65 5 43 20 46 23 24 24 -15 1 -30 8 -33 17 -3 9
-6 119 -6 245 0 126 -3 229 -7 228 -5 0 -30 -11 -58 -24z m-18 -199 c27 -23
28 -28 31 -134 4 -105 3 -110 -19 -126 -74 -52 -159 22 -159 139 0 116 78 180
147 121z"/>
<path d="M7862 1478 c-27 -27 -2 -75 32 -62 26 10 15 74 -14 74 -3 0 -11 -5
-18 -12z"/>
<path d="M10433 1483 c-19 -7 -16 -60 3 -67 34 -13 59 35 32 62 -13 13 -16 13
-35 5z"/>
<path d="M10625 1468 c-44 -20 -47 -23 -25 -28 l25 -6 0 -224 0 -224 -25 -13
c-22 -11 -15 -13 60 -12 81 0 84 0 58 15 l-28 15 0 249 c0 138 -3 250 -7 250
-5 -1 -30 -10 -58 -22z"/>
<path d="M10835 1465 c-42 -20 -46 -23 -24 -24 19 -1 28 -8 33 -23 7 -29 8
-386 0 -414 -3 -12 -15 -26 -27 -32 -17 -8 -5 -11 58 -11 76 0 79 0 53 15
l-28 15 0 249 c0 138 -3 250 -7 249 -5 0 -30 -11 -58 -24z"/>
<path d="M2583 1295 c-36 -15 -56 -46 -51 -78 2 -14 10 -22 23 -22 15 0 21 9
26 39 9 56 50 73 97 40 16 -11 22 -25 22 -54 0 -39 -1 -40 -72 -73 -40 -19
-82 -44 -92 -56 -29 -32 -25 -89 9 -118 34 -30 62 -29 108 2 37 26 57 26 57 0
0 -24 40 -29 68 -8 14 11 28 26 30 34 5 12 3 12 -11 1 -30 -25 -37 -4 -38 111
-1 141 -6 158 -49 179 -42 21 -83 22 -127 3z m117 -204 l0 -69 -37 -17 c-33
-16 -40 -16 -63 -4 -28 17 -37 56 -20 89 9 16 98 69 118 70 1 0 2 -31 2 -69z"/>
<path d="M2955 1296 c-96 -43 -132 -187 -71 -279 29 -43 87 -71 132 -63 38 8
98 61 107 95 5 19 2 18 -29 -9 -60 -53 -140 -36 -170 36 -20 49 -18 133 5 171
35 57 113 53 126 -6 7 -32 40 -50 57 -33 16 16 1 60 -27 78 -34 22 -94 27
-130 10z"/>
<path d="M3302 1303 c-12 -2 -37 -19 -56 -36 -93 -89 -61 -274 53 -308 67 -20
136 17 160 86 11 30 11 30 -7 9 -75 -87 -212 -32 -212 86 l0 30 115 0 c113 0
115 0 115 23 0 35 -38 87 -75 103 -34 14 -50 15 -93 7z m51 -25 c30 -16 46
-39 47 -65 0 -22 -4 -23 -80 -23 -66 0 -80 3 -80 16 0 26 19 53 48 68 33 19
38 19 65 4z"/>
<path d="M4023 1299 c-73 -22 -126 -135 -103 -220 15 -56 73 -115 123 -124 57
-11 122 17 155 68 23 35 27 51 27 112 0 63 -3 76 -28 108 -15 20 -36 41 -46
47 -29 15 -93 20 -128 9z m98 -35 c54 -48 67 -220 21 -266 -25 -25 -81 -30
-107 -8 -25 21 -52 80 -59 130 -13 98 34 178 97 166 17 -4 39 -13 48 -22z"/>
<path d="M4415 1303 c-67 -18 -118 -96 -117 -179 1 -79 43 -143 109 -165 106
-35 202 51 203 182 0 61 -22 105 -71 141 -27 20 -89 31 -124 21z m73 -29 c41
-28 62 -86 62 -168 0 -64 -3 -79 -24 -102 -27 -32 -82 -38 -112 -13 -33 27
-54 90 -54 167 0 68 2 76 29 103 33 32 65 37 99 13z"/>
<path d="M5340 1288 c-103 -53 -123 -220 -35 -297 64 -56 115 -53 177 8 21 21
38 46 38 54 0 11 -9 7 -29 -14 -24 -23 -38 -29 -74 -29 -38 0 -49 5 -70 30
-50 59 -60 149 -22 206 36 56 108 57 123 2 11 -43 36 -58 59 -36 23 24 6 60
-40 81 -47 23 -74 21 -127 -5z"/>
<path d="M5695 1296 c-90 -40 -130 -159 -84 -253 50 -104 173 -123 248 -38 80
92 58 240 -43 286 -48 22 -80 23 -121 5z m84 -21 c43 -21 65 -78 66 -161 0
-81 -15 -117 -54 -134 -70 -29 -139 56 -141 171 0 63 17 107 49 124 33 18 46
18 80 0z"/>
<path d="M6035 1300 c-11 -5 -33 -14 -50 -20 l-30 -13 25 -6 c25 -7 25 -7 28
-138 l3 -132 -28 -15 c-27 -15 -24 -15 57 -15 68 1 80 3 58 11 -34 12 -40 40
-36 163 3 89 3 89 37 112 41 28 62 29 92 4 22 -17 24 -28 27 -121 5 -124 0
-145 -35 -158 -23 -8 -10 -10 62 -11 86 0 89 0 58 14 l-33 14 0 114 c0 126 4
136 68 158 26 9 37 8 57 -5 24 -16 25 -19 25 -141 l0 -124 -27 -15 c-27 -15
-24 -15 57 -15 75 -1 82 1 60 12 -24 12 -25 16 -31 142 -6 140 -14 166 -61
186 -34 14 -86 -1 -118 -36 l-22 -24 -33 35 c-45 48 -85 44 -147 -14 -29 -26
-33 -24 -40 24 -2 17 -7 20 -23 14z"/>
<path d="M7254 1290 c-57 -29 -84 -80 -84 -160 0 -111 52 -175 142 -175 50 0
87 24 114 77 20 39 18 40 -15 7 -34 -34 -83 -39 -132 -13 -32 16 -68 81 -69
122 0 22 2 22 115 22 l115 0 0 30 c0 20 -11 42 -33 66 -42 46 -94 54 -153 24z
m94 -24 c7 -7 16 -26 21 -44 l10 -32 -85 0 c-46 0 -84 4 -84 10 0 26 28 64 55
76 31 14 61 10 83 -10z"/>
<path d="M7575 1301 c-27 -11 -51 -41 -58 -69 -11 -45 11 -77 80 -118 80 -47
93 -59 93 -88 0 -75 -115 -71 -153 6 l-17 33 0 -45 0 -46 58 -13 c90 -20 147
10 158 81 8 46 -20 79 -107 124 -77 41 -95 70 -64 104 34 37 102 19 128 -33
l16 -32 0 47 c1 38 -2 47 -16 46 -10 0 -36 2 -58 6 -22 3 -49 2 -60 -3z"/>
<path d="M7845 1288 c-44 -20 -47 -23 -25 -28 l25 -6 0 -134 c0 -133 0 -135
-25 -147 -22 -11 -15 -13 60 -13 75 0 82 2 60 13 -25 13 -25 13 -28 175 -1 89
-6 162 -10 162 -4 -1 -29 -10 -57 -22z"/>
<path d="M8040 1286 c-46 -17 -51 -22 -30 -25 14 -1 28 -8 32 -15 4 -6 8 -66
8 -133 l0 -122 -27 -15 c-27 -14 -24 -15 57 -15 67 0 81 2 65 11 -39 21 -45
39 -45 137 0 85 3 99 23 125 23 28 24 28 61 15 32 -12 38 -11 46 1 13 21 12
26 -6 44 -23 24 -42 20 -81 -19 -19 -19 -37 -35 -38 -35 -2 0 -5 15 -7 34 l-3
33 -55 -21z"/>
<path d="M8365 1296 c-65 -29 -95 -84 -95 -174 1 -151 138 -224 232 -123 45
48 53 84 9 40 -69 -68 -175 -17 -196 94 l-7 37 121 0 121 0 -6 28 c-12 50 -33
79 -68 96 -41 19 -71 20 -111 2z m87 -35 c9 -9 20 -28 23 -43 l7 -28 -87 0
c-85 0 -86 0 -79 23 20 68 90 93 136 48z"/>
<path d="M8705 1296 c-65 -29 -95 -84 -95 -174 1 -151 138 -224 232 -123 45
48 53 84 9 40 -69 -68 -175 -17 -196 94 l-7 37 121 0 121 0 -6 28 c-12 50 -33
79 -68 96 -41 19 -71 20 -111 2z m87 -35 c9 -9 20 -28 23 -43 l7 -28 -87 0
c-85 0 -86 0 -79 23 20 68 90 93 136 48z"/>
<path d="M9195 1300 c-11 -5 -33 -14 -50 -20 l-30 -13 25 -6 c25 -7 25 -7 28
-138 l3 -132 -28 -15 c-27 -15 -24 -15 57 -15 77 0 83 1 61 13 -34 19 -39 38
-40 136 -1 69 3 91 20 119 16 27 24 32 42 26 63 -20 99 2 62 39 -25 24 -44 20
-81 -20 -34 -36 -39 -35 -46 12 -2 17 -7 20 -23 14z"/>
<path d="M9495 1296 c-90 -40 -130 -159 -84 -253 50 -104 173 -123 248 -38 80
92 58 240 -43 286 -48 22 -80 23 -121 5z m84 -21 c43 -21 65 -78 66 -161 0
-81 -15 -117 -54 -134 -70 -29 -139 56 -141 171 0 63 17 107 49 124 33 18 46
18 80 0z"/>
<path d="M9835 1300 c-11 -5 -33 -14 -50 -20 l-30 -13 25 -6 c25 -7 25 -7 28
-138 l3 -132 -28 -15 c-27 -15 -24 -15 57 -15 68 1 80 3 58 11 -34 12 -40 40
-36 163 3 89 3 89 37 112 41 28 62 29 92 4 22 -17 24 -28 27 -121 5 -124 0
-145 -35 -158 -23 -8 -10 -10 62 -11 86 0 89 0 58 14 l-33 14 0 114 c0 126 4
136 68 158 26 9 37 8 57 -5 24 -16 25 -19 25 -141 l0 -124 -27 -15 c-27 -15
-24 -15 57 -15 75 -1 82 1 60 12 -24 12 -25 16 -31 142 -6 140 -14 166 -61
186 -34 14 -86 -1 -118 -36 l-22 -24 -33 35 c-45 48 -85 44 -147 -14 -29 -26
-33 -24 -40 24 -2 17 -7 20 -23 14z"/>
<path d="M10445 1300 c-11 -4 -33 -14 -50 -20 l-30 -13 25 -6 25 -7 0 -134 c0
-133 0 -135 -25 -147 -22 -11 -15 -13 60 -13 75 0 82 2 60 13 -25 13 -25 13
-28 175 -1 89 -6 162 -10 161 -4 0 -16 -4 -27 -9z"/>
<path d="M11125 1303 c-67 -18 -118 -96 -117 -179 1 -79 43 -143 109 -165 106
-35 202 51 203 182 0 61 -22 105 -71 141 -27 20 -89 31 -124 21z m73 -29 c41
-28 62 -86 62 -168 0 -64 -3 -79 -24 -102 -27 -32 -82 -38 -112 -13 -33 27
-54 90 -54 167 0 68 2 76 29 103 33 32 65 37 99 13z"/>
<path d="M5100 1015 c-26 -31 13 -82 44 -56 19 16 21 42 4 59 -16 16 -33 15
-48 -3z"/>
<path d="M8980 1011 c-18 -34 10 -68 44 -55 35 13 23 74 -14 74 -11 0 -24 -9
-30 -19z"/>
<path d="M4930 663 c-26 -10 -61 -47 -83 -88 -18 -33 -22 -57 -22 -140 0 -88
3 -107 25 -150 48 -92 121 -108 185 -40 64 67 81 240 33 332 -35 69 -91 103
-138 86z m60 -23 c62 -33 68 -342 8 -402 -25 -25 -66 -20 -89 12 -55 75 -37
369 23 393 21 9 38 8 58 -3z"/>
<path d="M5232 651 c-49 -31 -72 -76 -72 -141 0 -67 24 -111 70 -130 29 -12
39 -12 79 3 25 9 47 14 49 12 2 -2 -5 -23 -16 -48 -27 -61 -82 -113 -139 -131
l-48 -16 45 6 c85 10 162 72 203 164 29 64 29 161 -1 217 -39 74 -110 101
-170 64z m96 -23 c30 -33 42 -72 42 -138 0 -49 -4 -61 -22 -74 -34 -24 -81
-20 -109 10 -20 21 -24 38 -27 99 -4 68 -2 76 21 99 32 32 67 33 95 4z"/>
<path d="M5570 652 c-97 -48 -106 -219 -14 -268 33 -18 37 -18 81 -2 26 9 49
15 51 13 9 -9 -20 -71 -53 -111 -24 -29 -52 -49 -88 -63 -38 -14 -45 -20 -27
-20 44 -1 124 44 168 94 97 111 94 285 -7 352 -41 28 -65 29 -111 5z m94 -25
c28 -28 48 -113 40 -167 -5 -30 -13 -41 -34 -50 -68 -28 -119 11 -128 99 -6
61 2 95 28 121 27 27 66 25 94 -3z"/>
<path d="M5900 652 c-41 -23 -80 -90 -80 -139 0 -43 21 -92 50 -118 25 -22
102 -27 122 -7 37 37 37 -11 0 -69 -37 -57 -59 -76 -118 -100 l-49 -20 45 6
c24 3 59 15 77 26 49 31 110 105 127 156 56 165 -53 331 -174 265z m95 -26
c44 -44 60 -184 24 -207 -55 -36 -105 -21 -131 38 -52 118 29 247 107 169z"/>
<path d="M7131 648 c-19 -13 -46 -45 -60 -73 -22 -42 -26 -63 -26 -135 0 -132
45 -221 120 -236 40 -8 93 28 125 86 22 40 25 57 25 145 0 83 -4 107 -22 140
-46 87 -104 113 -162 73z m91 -15 c28 -32 38 -85 38 -190 0 -165 -25 -228 -86
-221 -47 5 -67 53 -72 172 -5 118 9 200 40 233 26 27 59 30 80 6z"/>
<path d="M7778 653 c-42 -50 -198 -283 -198 -297 0 -12 17 -16 93 -18 l92 -3
3 -62 c3 -59 4 -63 27 -63 24 0 25 3 25 65 l0 65 30 0 c23 0 30 4 30 20 0 16
-7 20 -30 20 l-30 0 0 145 c0 115 -3 145 -13 145 -8 0 -21 -8 -29 -17z m-8
-168 l0 -105 -80 0 c-64 0 -79 3 -73 13 34 55 139 197 145 197 4 0 8 -47 8
-105z"/>
<path d="M8333 650 c-17 -10 -37 -28 -43 -40 l-11 -20 33 20 c44 26 74 25 103
-5 48 -47 28 -117 -43 -155 -31 -16 -34 -19 -14 -20 56 -1 112 -56 112 -110 0
-29 -26 -76 -45 -84 -29 -11 -75 -6 -107 10 -33 17 -55 7 -45 -20 8 -21 48
-30 102 -22 123 19 179 166 92 241 l-35 30 24 28 c13 15 27 39 30 53 14 53
-38 114 -98 114 -13 0 -37 -9 -55 -20z"/>
<path d="M8673 656 c-17 -8 -36 -23 -42 -35 -16 -29 -13 -36 7 -18 74 67 170
-18 122 -108 -7 -13 -31 -33 -54 -44 -33 -16 -36 -20 -18 -21 32 0 78 -25 96
-52 9 -12 16 -40 16 -61 0 -73 -65 -106 -143 -74 -36 15 -57 12 -57 -8 0 -38
104 -44 168 -11 86 45 97 193 18 235 l-25 14 29 34 c76 86 -11 197 -117 149z"/>
<path d="M6410 641 c-5 -11 -14 -31 -20 -45 l-9 -25 32 19 c24 15 50 20 110
20 42 0 77 -4 77 -8 0 -4 -29 -95 -65 -202 -36 -107 -65 -196 -65 -197 0 -2 6
-3 14 -3 10 0 38 71 87 218 39 119 74 223 77 230 3 9 -23 12 -112 12 -104 0
-116 -2 -126 -19z"/>
<path d="M6777 579 c-20 -45 -34 -85 -31 -90 3 -5 16 -9 30 -9 37 0 99 -35
124 -70 25 -36 29 -100 7 -133 -24 -37 -72 -53 -111 -38 -17 7 -42 15 -54 18
-20 5 -23 2 -20 -18 4 -32 55 -46 108 -30 108 32 161 145 109 230 -28 46 -55
67 -111 86 l-47 16 12 32 c13 31 15 32 82 35 67 3 84 11 85 40 0 8 -21 12 -73
12 l-74 0 -36 -81z"/>
<path d="M8000 580 c-22 -45 -38 -85 -36 -89 3 -5 24 -11 47 -14 49 -6 85 -30
117 -78 60 -87 -28 -201 -119 -155 -40 20 -69 20 -69 1 0 -28 46 -48 93 -41
85 14 147 84 147 168 0 76 -46 124 -157 165 l-23 8 20 33 c19 31 22 32 83 32
58 0 65 2 75 25 l12 25 -75 0 -75 0 -40 -80z"/>
<path d="M6160 365 c0 -25 1 -25 80 -25 79 0 80 0 80 25 0 25 -1 25 -80 25
-79 0 -80 0 -80 -25z"/>
<path d="M7380 365 c0 -25 1 -25 80 -25 79 0 80 0 80 25 0 25 -1 25 -80 25
-79 0 -80 0 -80 -25z"/>
</g>
</svg>
